<?xml version="1.0" encoding="UTF-8"?>
<!DOCTYPE svg PUBLIC "-//W3C//DTD SVG 1.1//EN" "http://www.w3.org/Graphics/SVG/1.1/DTD/svg11.dtd">
<svg xmlns="http://www.w3.org/2000/svg" version="1.1" width="2302px" height="1420px" style="shape-rendering:geometricPrecision; text-rendering:geometricPrecision; image-rendering:optimizeQuality; fill-rule:evenodd; clip-rule:evenodd" xmlns:xlink="http://www.w3.org/1999/xlink">
<g><path style="opacity:1" fill="#fefefe" d="M -0.5,-0.5 C 766.833,-0.5 1534.17,-0.5 2301.5,-0.5C 2301.5,472.833 2301.5,946.167 2301.5,1419.5C 1534.17,1419.5 766.833,1419.5 -0.5,1419.5C -0.5,946.167 -0.5,472.833 -0.5,-0.5 Z"/></g>
<g><path style="opacity:1" fill="#020202" d="M 1865.5,17.5 C 2013.64,16.4832 2130.8,75.4832 2217,194.5C 2282.21,293.28 2301.88,400.613 2276,516.5C 2241.93,643.563 2165.43,735.063 2046.5,791C 1918.99,843.733 1795.32,836.066 1675.5,768C 1662.82,759.994 1650.49,751.494 1638.5,742.5C 1529.47,821.937 1409.47,844.437 1278.5,810C 1230.46,795.23 1186.62,772.73 1147,742.5C 1049.83,814.914 941.33,840.414 821.5,819C 760.925,806.038 705.925,781.204 656.5,744.5C 563.749,813.104 460.083,838.938 345.5,822C 223.915,798.662 130.415,734.828 65,630.5C 8.14718,531.727 -6.18615,427.06 22,316.5C 59.4298,192.407 137.263,103.907 255.5,51C 365.771,6.91272 475.104,9.24605 583.5,58C 609.421,70.1994 633.588,85.0327 656,102.5C 755.92,28.3601 867.087,3.86008 989.5,29C 1047.22,42.4926 1099.55,66.9926 1146.5,102.5C 1240.86,31.662 1346.52,5.82871 1463.5,25C 1527.6,37.0726 1585.6,62.5726 1637.5,101.5C 1704.93,50.4629 1780.93,22.4629 1865.5,17.5 Z"/></g>
<g><path style="opacity:1" fill="#fcfcfc" d="M 1862.5,32.5 C 1865.12,32.2317 1867.62,32.565 1870,33.5C 1875.58,43.664 1881.41,53.664 1887.5,63.5C 1954.69,66.2113 2017.69,83.7113 2076.5,116C 2157.02,165.582 2207.85,236.749 2229,329.5C 2241.92,382.352 2244.59,435.685 2237,489.5C 2219.3,582.133 2172.46,655.966 2096.5,711C 1990.53,783.003 1876.87,798.003 1755.5,756C 1711.62,738.731 1672.45,714.231 1638,682.5C 1537.52,771.159 1422.02,798.992 1291.5,766C 1236.91,749.483 1188.91,721.983 1147.5,683.5C 1043.91,773.893 925.575,800.726 792.5,764C 741.246,747.163 695.912,720.663 656.5,684.5C 563.986,766.636 456.652,796.136 334.5,773C 216.702,743.692 132.702,673.859 82.5,563.5C 69.9306,561.738 57.5973,558.905 45.5,555C 5.72111,439.173 16.5544,328.339 78,222.5C 142.677,120.527 234.844,59.0269 354.5,38C 369.094,35.6748 383.76,34.6748 398.5,35C 404.992,44.1461 410.325,53.9794 414.5,64.5C 510.046,67.8203 592.213,102.154 661,167.5C 660.753,150.829 660.42,134.162 660,117.5C 726.775,64.3787 802.942,37.0454 888.5,35.5C 894.923,44.6736 900.59,54.3403 905.5,64.5C 999.82,69.2664 1081.65,103.266 1151,166.5C 1150,150.521 1149.33,134.521 1149,118.5C 1214.54,66.3396 1289.38,38.0063 1373.5,33.5C 1376.01,33.288 1378.18,33.9546 1380,35.5C 1385.55,44.7602 1390.71,54.2602 1395.5,64C 1490.76,68.7301 1572.93,103.563 1642,168.5C 1641.58,152.495 1640.75,136.495 1639.5,120.5C 1639.83,119.5 1640.17,118.5 1640.5,117.5C 1705.5,65.9408 1779.5,37.6074 1862.5,32.5 Z"/></g>
<g><path style="opacity:1" fill="#020202" d="M 1853.5,84.5 C 1936.91,79.3668 2012.58,100.867 2080.5,149C 2118.8,175.63 2150.63,208.463 2176,247.5C 2185.99,263.486 2193.83,280.486 2199.5,298.5C 2191.4,305.841 2185.4,314.674 2181.5,325C 2210.73,423.764 2196.89,515.931 2140,601.5C 2082.69,679.702 2005.52,723.869 1908.5,734C 1891.17,734.667 1873.83,734.667 1856.5,734C 1846.36,733.306 1836.36,731.806 1826.5,729.5C 1821.44,735.278 1816.6,741.278 1812,747.5C 1810.82,749.357 1809.15,750.357 1807,750.5C 1748.02,736.434 1696.52,708.934 1652.5,668C 1699.08,618.691 1729.24,560.525 1743,493.5C 1764.17,372.557 1733.67,266.89 1651.5,176.5C 1708.53,123.659 1775.86,92.9922 1853.5,84.5 Z"/></g>
<g><path style="opacity:1" fill="#020202" d="M 886.5,85.5 C 982.376,83.3065 1065.04,114.807 1134.5,180C 1118.51,181 1102.51,181.666 1086.5,182C 1008.95,284.378 985.455,398.211 1016,523.5C 1019.09,533.346 1022.25,543.179 1025.5,553C 1025.91,553.945 1026.57,554.612 1027.5,555C 1038.96,558.244 1050.63,560.411 1062.5,561.5C 1080.25,602.526 1104.58,639.026 1135.5,671C 1120.5,671.333 1105.5,671.667 1090.5,672C 1068.65,690.932 1043.99,705.265 1016.5,715C 959.891,735.327 901.891,740.994 842.5,732C 836.976,738.853 831.476,745.686 826,752.5C 766.865,738.19 715.032,710.69 670.5,670C 735.38,600.416 768.38,517.75 769.5,422C 768.767,340.794 743.601,268.294 694,204.5C 686.312,195.646 678.812,186.646 671.5,177.5C 731.891,120.813 803.558,90.1459 886.5,85.5 Z"/></g>
<g><path style="opacity:1" fill="#020202" d="M 1625.5,669.5 C 1620.17,670.167 1614.83,670.833 1609.5,671.5C 1600.83,671.334 1592.16,671.5 1583.5,672C 1538.13,703.464 1488.13,723.797 1433.5,733C 1400.85,737.066 1368.35,736.233 1336,730.5C 1329.98,736.179 1324.65,742.512 1320,749.5C 1319.2,750.804 1318.03,751.471 1316.5,751.5C 1257.54,737.446 1206.21,709.779 1162.5,668.5C 1244.18,575.023 1273.35,467.023 1250,344.5C 1234.78,280.703 1204.94,225.036 1160.5,177.5C 1236.68,107.16 1326.68,76.9935 1430.5,87C 1506.55,97.1946 1572.21,128.528 1627.5,181C 1610.5,181.333 1593.5,181.667 1576.5,182C 1500.2,283.148 1476.7,395.648 1506,519.5C 1509.36,530.928 1513.02,542.262 1517,553.5C 1528.95,557.185 1541.11,559.852 1553.5,561.5C 1571.06,602.006 1595.06,638.006 1625.5,669.5 Z"/></g>
<g><path style="opacity:1" fill="#020202" d="M 644.5,672.5 C 633.012,673.495 621.345,673.828 609.5,673.5C 605.818,673.335 602.152,673.501 598.5,674C 525.621,727.25 444.455,746.417 355,731.5C 348.819,738.022 342.986,744.855 337.5,752C 239.831,728.747 165.997,673.581 116,586.5C 72.9849,506.077 62.9849,421.744 86,333.5C 119.811,224.022 189.978,148.189 296.5,106C 391.805,73.465 484.138,80.465 573.5,127C 600.149,141.829 624.482,159.829 646.5,181C 629.5,181.333 612.5,181.667 595.5,182C 522.731,276.446 497.231,382.612 519,500.5C 523.233,518.763 528.399,536.763 534.5,554.5C 546.56,558.264 558.893,560.931 571.5,562.5C 589.365,603.595 613.699,640.261 644.5,672.5 Z"/></g>
<g><path style="opacity:1" fill="#fefefe" d="M 1858.5,124.5 C 1969.26,119.639 2058.09,160.972 2125,248.5C 2184.48,335.553 2196.48,428.886 2161,528.5C 2118.6,628.891 2044.1,690.725 1937.5,714C 1861.7,727.373 1791.04,714.04 1725.5,674C 1721.43,671.639 1717.77,668.806 1714.5,665.5C 1791.77,558.506 1813.94,440.84 1781,312.5C 1766.66,263.492 1744.16,218.825 1713.5,178.5C 1757.09,147.859 1805.42,129.859 1858.5,124.5 Z"/></g>
<g><path style="opacity:1" fill="#fefefe" d="M 1365.5,125.5 C 1435.63,120.751 1499.96,137.585 1558.5,176C 1559.57,176.739 1560.24,177.739 1560.5,179C 1484.8,283.832 1462.3,399.332 1493,525.5C 1507.1,576.694 1529.93,623.361 1561.5,665.5C 1483.81,717.893 1399.48,732.059 1308.5,708C 1277.54,698.686 1248.88,684.853 1222.5,666.5C 1298.97,561.327 1321.8,445.327 1291,318.5C 1276.65,267.796 1253.81,221.462 1222.5,179.5C 1253.93,156.127 1288.93,140.294 1327.5,132C 1340.21,129.27 1352.88,127.104 1365.5,125.5 Z"/></g>
<g><path style="opacity:1" fill="#fefefe" d="M 383.5,126.5 C 455.057,121.199 520.39,138.532 579.5,178.5C 496.974,292.322 476.474,416.655 518,551.5C 532.509,593.527 553.009,632.193 579.5,667.5C 496.478,722.288 407.478,734.455 312.5,704C 217.948,667.115 155.448,600.282 125,503.5C 96.8212,384.676 126.988,283.509 215.5,200C 263.953,158.56 319.953,134.06 383.5,126.5 Z"/></g>
<g><path style="opacity:1" fill="#fefefe" d="M 881.5,125.5 C 950.528,122.669 1013.53,140.502 1070.5,179C 995.97,281.282 972.47,394.449 1000,518.5C 1013.57,572.632 1037.07,621.798 1070.5,666C 982.548,724.662 888.882,735.662 789.5,699C 769.405,690.792 750.738,680.292 733.5,667.5C 800.89,575.961 826.724,473.628 811,360.5C 799.818,293.159 773.651,232.492 732.5,178.5C 777.438,147.521 827.105,129.854 881.5,125.5 Z"/></g>
<g><path style="opacity:1" fill="#020202" d="M 1635.5,191.5 C 1636.55,191.351 1637.55,191.517 1638.5,192C 1661.13,214.953 1680.29,240.453 1696,268.5C 1701.13,278.268 1705.3,288.435 1708.5,299C 1700.72,306.615 1694.72,315.449 1690.5,325.5C 1709.64,388.88 1710.48,452.547 1693,516.5C 1681.5,552.51 1664.5,585.51 1642,615.5C 1641.67,629.167 1641.33,642.833 1641,656.5C 1570.17,581.041 1538.84,491.375 1547,387.5C 1555.71,312.446 1585.21,247.113 1635.5,191.5 Z"/></g>
<g><path style="opacity:1" fill="#020202" d="M 656.5,191.5 C 683.546,218.392 705.38,249.058 722,283.5C 724.267,288.865 726.101,294.365 727.5,300C 727.333,300.833 727.167,301.667 727,302.5C 719.124,309.091 713.624,317.258 710.5,327C 737.426,415.999 727.926,500.832 682,581.5C 674.824,592.52 667.157,603.186 659,613.5C 657.956,627.814 657.29,642.148 657,656.5C 608.886,607.94 579.552,549.606 569,481.5C 552.125,370.647 581.292,273.98 656.5,191.5 Z"/></g>
<g><path style="opacity:1" fill="#020202" d="M 1146.5,191.5 C 1172.81,218.666 1194.31,249.333 1211,283.5C 1214.11,289.167 1215.78,295.167 1216,301.5C 1207.98,308.209 1202.48,316.543 1199.5,326.5C 1225.89,414.857 1216.39,499.191 1171,579.5C 1164.25,591.332 1157.25,602.999 1150,614.5C 1149.61,628.181 1148.95,641.848 1148,655.5C 1072.21,571.744 1042.88,473.744 1060,361.5C 1072.76,296.304 1101.6,239.638 1146.5,191.5 Z"/></g>
<g><path style="opacity:1" fill="#fdfdfd" d="M 655.5,254.5 C 690.784,304.524 708.784,360.358 709.5,422C 709.002,483.987 691.336,540.487 656.5,591.5C 621.315,540.626 603.648,484.126 603.5,422C 604.268,360.872 621.601,305.038 655.5,254.5 Z"/></g>
<g><path style="opacity:1" fill="#fdfdfd" d="M 1636.5,255.5 C 1638.07,255.937 1639.24,256.937 1640,258.5C 1697.13,349.244 1705.13,444.244 1664,543.5C 1656.85,559.807 1648.19,575.14 1638,589.5C 1603.12,538.185 1585.62,481.352 1585.5,419C 1586.54,359.39 1603.54,304.89 1636.5,255.5 Z"/></g>
<g><path style="opacity:1" fill="#fdfdfd" d="M 1145.5,256.5 C 1146.5,256.414 1147.33,256.748 1148,257.5C 1200.78,340.52 1211.78,428.853 1181,522.5C 1172.62,546.592 1161.12,568.925 1146.5,589.5C 1103.74,525.455 1087.58,455.122 1098,378.5C 1105.11,334.312 1120.95,293.645 1145.5,256.5 Z"/></g>
<g><path style="opacity:1" fill="#676767" d="M 1625.5,669.5 C 1626.04,669.56 1626.38,669.893 1626.5,670.5C 1620.87,671.495 1615.21,671.829 1609.5,671.5C 1614.83,670.833 1620.17,670.167 1625.5,669.5 Z"/></g>
<g><path style="opacity:1" fill="#585858" d="M 644.5,672.5 C 645.289,672.783 645.956,673.283 646.5,674C 633.993,674.827 621.66,674.66 609.5,673.5C 621.345,673.828 633.012,673.495 644.5,672.5 Z"/></g>
<g><path style="opacity:1" fill="#000000" d="M 1519.5,1095.5 C 1536.17,1095.67 1552.84,1095.5 1569.5,1095C 1568.96,1094.28 1568.29,1093.78 1567.5,1093.5C 1537.04,1059.2 1506.37,1025.04 1475.5,991C 1523.83,990.333 1572.17,990.333 1620.5,991C 1658.56,1034.05 1694.73,1078.55 1729,1124.5C 1748.28,1151.05 1763.95,1179.72 1776,1210.5C 1791.35,1259.43 1781.02,1302.1 1745,1338.5C 1709.44,1370.87 1667.94,1392.03 1620.5,1402C 1557.57,1414.94 1495.57,1411.61 1434.5,1392C 1394.21,1378.46 1360.37,1355.63 1333,1323.5C 1306.89,1287.37 1300.89,1248.04 1315,1205.5C 1328.74,1171.43 1351.9,1145.93 1384.5,1129C 1427.03,1107.99 1472.03,1096.83 1519.5,1095.5 Z"/></g>
<g><path style="opacity:1" fill="#000000" d="M 919.5,1407.5 C 871.003,1408.5 822.336,1408.83 773.5,1408.5C 760.066,1387.82 746.733,1366.98 733.5,1346C 644.167,1345.33 554.833,1345.33 465.5,1346C 452.582,1366.5 439.916,1387.17 427.5,1408C 380.5,1408.67 333.5,1408.67 286.5,1408C 364.624,1289.59 442.624,1171.09 520.5,1052.5C 506.714,1035.76 493.047,1018.93 479.5,1002C 532.833,1001.33 586.167,1001.33 639.5,1002C 732.967,1137.11 826.3,1272.28 919.5,1407.5 Z"/></g>
<g><path style="opacity:1" fill="#6c6c6c" d="M 1567.5,1093.5 C 1568.29,1093.78 1568.96,1094.28 1569.5,1095C 1552.84,1095.5 1536.17,1095.67 1519.5,1095.5C 1535.5,1094.83 1551.5,1094.17 1567.5,1093.5 Z"/></g>
<g><path style="opacity:1" fill="#000000" d="M 895.5,1103.5 C 935.833,1103.5 976.167,1103.5 1016.5,1103.5C 1016.33,1162.5 1016.5,1221.5 1017,1280.5C 1023.31,1312.81 1042.81,1331.64 1075.5,1337C 1097.47,1339.51 1117.47,1334.51 1135.5,1322C 1148.97,1310.22 1156.47,1295.39 1158,1277.5C 1158.5,1219.5 1158.67,1161.5 1158.5,1103.5C 1197.83,1103.5 1237.17,1103.5 1276.5,1103.5C 1276.67,1167.17 1276.5,1230.83 1276,1294.5C 1273.03,1326.28 1259.2,1352.12 1234.5,1372C 1206.56,1392.96 1175.23,1406.29 1140.5,1412C 1083.73,1423.02 1028.73,1417.35 975.5,1395C 948.842,1383.34 927.342,1365.51 911,1341.5C 903.632,1328.73 898.632,1315.06 896,1300.5C 895.5,1234.83 895.333,1169.17 895.5,1103.5 Z"/></g>
<g><path style="opacity:1" fill="#2d2d2d" d="M 1941.5,1408.5 C 1941.5,1307.17 1941.5,1205.83 1941.5,1104.5C 1898.5,1104.5 1855.5,1104.5 1812.5,1104.5C 1812.5,1205.83 1812.5,1307.17 1812.5,1408.5C 1811.5,1307 1811.17,1205.33 1811.5,1103.5C 1855.17,1103.5 1898.83,1103.5 1942.5,1103.5C 1942.83,1205.33 1942.5,1307 1941.5,1408.5 Z"/></g>
<g><path style="opacity:1" fill="#000000" d="M 1941.5,1408.5 C 1898.5,1408.5 1855.5,1408.5 1812.5,1408.5C 1812.5,1307.17 1812.5,1205.83 1812.5,1104.5C 1855.5,1104.5 1898.5,1104.5 1941.5,1104.5C 1941.5,1205.83 1941.5,1307.17 1941.5,1408.5 Z"/></g>
<g><path style="opacity:1" fill="#fefefe" d="M 680.5,1262.5 C 625.664,1262.83 570.997,1262.5 516.5,1261.5C 542.417,1217.32 569.083,1173.66 596.5,1130.5C 624.887,1174.23 652.887,1218.23 680.5,1262.5 Z"/></g>
<g><path style="opacity:1" fill="#fefefe" d="M 1532.5,1167.5 C 1557.75,1166.4 1582.08,1170.56 1605.5,1180C 1627.88,1189.72 1644.38,1205.55 1655,1227.5C 1662.77,1252.21 1658.11,1274.21 1641,1293.5C 1613.8,1319.28 1581.3,1331.61 1543.5,1330.5C 1511.35,1330.51 1482.68,1320.67 1457.5,1301C 1427.87,1273.58 1424.04,1243.08 1446,1209.5C 1469.46,1184.35 1498.29,1170.35 1532.5,1167.5 Z"/></g>
<g><path style="opacity:1" fill="#444444" d="M 516.5,1261.5 C 570.997,1262.5 625.664,1262.83 680.5,1262.5C 625.665,1263.83 570.665,1263.83 515.5,1262.5C 515.624,1261.89 515.957,1261.56 516.5,1261.5 Z"/></g>
<g><path style="opacity:1" fill="#989898" d="M 919.5,1407.5 C 920.043,1407.56 920.376,1407.89 920.5,1408.5C 871.335,1409.83 822.335,1409.83 773.5,1408.5C 822.336,1408.83 871.003,1408.5 919.5,1407.5 Z"/></g>
</svg>
