<?xml version="1.0" encoding="UTF-8"?>
<!DOCTYPE svg PUBLIC "-//W3C//DTD SVG 1.1//EN" "http://www.w3.org/Graphics/SVG/1.1/DTD/svg11.dtd">
<svg xmlns="http://www.w3.org/2000/svg" version="1.1" width="2454px" height="553px" style="shape-rendering:geometricPrecision; text-rendering:geometricPrecision; image-rendering:optimizeQuality; fill-rule:evenodd; clip-rule:evenodd" xmlns:xlink="http://www.w3.org/1999/xlink">
<g><path style="opacity:1" fill="#fdfdfd" d="M -0.5,-0.5 C 817.5,-0.5 1635.5,-0.5 2453.5,-0.5C 2453.5,183.833 2453.5,368.167 2453.5,552.5C 1635.5,552.5 817.5,552.5 -0.5,552.5C -0.5,368.167 -0.5,183.833 -0.5,-0.5 Z"/></g>
<g><path style="opacity:1" fill="#000000" d="M 1300.5,366.5 C 1318.18,366.833 1335.85,366.5 1353.5,365.5C 1353.38,364.893 1353.04,364.56 1352.5,364.5C 1326.68,314.193 1300.85,263.86 1275,213.5C 1218.29,321.079 1161.46,428.579 1104.5,536C 1005.83,536.667 907.167,536.667 808.5,536C 898.833,360.333 989.167,184.667 1079.5,9C 1208.83,8.16667 1338.17,8.33334 1467.5,9.5C 1550.74,186.393 1634.07,363.227 1717.5,540C 1528.5,539.173 1339.5,538.34 1150.5,537.5C 1176.27,480.626 1202.6,423.959 1229.5,367.5C 1253.16,366.5 1276.82,366.167 1300.5,366.5 Z"/></g>
<g><path style="opacity:1" fill="#000000" d="M 14.5,11.5 C 215.167,11.3333 415.834,11.5 616.5,12C 694.914,20.6152 759.414,54.7818 810,114.5C 866.88,190.777 880.88,274.444 852,365.5C 826.798,433.036 781.298,481.536 715.5,511C 685.962,523.385 655.296,531.718 623.5,536C 420.5,536.5 217.5,536.667 14.5,536.5C 14.5,361.5 14.5,186.5 14.5,11.5 Z"/></g>
<g><path style="opacity:1" fill="#000000" d="M 2034.5,246.5 C 2166.67,247.5 2299,247.833 2431.5,247.5C 2431.5,304.167 2431.5,360.833 2431.5,417.5C 2299.83,417.5 2168.17,417.5 2036.5,417.5C 2036.49,458.17 2036.83,498.837 2037.5,539.5C 1941.17,539.5 1844.83,539.5 1748.5,539.5C 1748.5,363.833 1748.5,188.167 1748.5,12.5C 1979.17,12.5 2209.83,12.5 2440.5,12.5C 2440.5,69.1667 2440.5,125.833 2440.5,182.5C 2305.17,182.5 2169.83,182.5 2034.5,182.5C 2034.5,203.833 2034.5,225.167 2034.5,246.5 Z"/></g>
<g><path style="opacity:1" fill="#fdfdfd" d="M 316.5,170.5 C 374.834,170.333 433.168,170.5 491.5,171C 519.213,190.225 535.38,216.725 540,250.5C 543.912,278.244 540.245,304.911 529,330.5C 520.71,348.124 508.21,361.957 491.5,372C 433.168,372.5 374.834,372.667 316.5,372.5C 316.5,305.167 316.5,237.833 316.5,170.5 Z"/></g>
<g><path style="opacity:1" fill="#747474" d="M 2034.5,246.5 C 2167.17,246.5 2299.83,246.5 2432.5,246.5C 2432.83,303.669 2432.5,360.669 2431.5,417.5C 2431.5,360.833 2431.5,304.167 2431.5,247.5C 2299,247.833 2166.67,247.5 2034.5,246.5 Z"/></g>
<g><path style="opacity:1" fill="#747474" d="M 1352.5,364.5 C 1353.04,364.56 1353.38,364.893 1353.5,365.5C 1335.85,366.5 1318.18,366.833 1300.5,366.5C 1317.83,365.833 1335.17,365.167 1352.5,364.5 Z"/></g>
</svg>
